# AST/ASF file generated using VICON BodyLanguage
# -----------------------------------------------
:version 1.10
:name VICON
:units
  mass 1.0
  length 0.45
  angle deg
:documentation
   .ast/.asf automatically generated from VICON data using
   VICON BodyBuilder and BodyLanguage model FoxedUp or BRILLIANT.MOD
:root
   order TX TY TZ RX RY RZ
   axis XYZ
   position 0 0 0  
   orientation 0 0 0 
:bonedata
  begin
     id 1 
     name lhipjoint
     direction 0.671379 -0.66392 0.329334 
     length 2.38647 
     axis 0 0 0  XYZ
  end
  begin
     id 2 
     name lfemur
     direction 0.34202 -0.939693 0  
     length 6.48179  
     axis 0 0 20  XYZ
    dof rx ry rz
    limits (-160.0 20.0)
           (-70.0 70.0)
           (-60.0 70.0)
  end
  begin
     id 3 
     name ltibia
     direction 0.34202 -0.939693 0   
     length 6.86524   
     axis 0 0 20   XYZ
    dof rx
    limits (-10.0 170.0)
  end
  begin
     id 4 
     name lfoot
     direction 0.204886 -0.562919 0.800715   
     length 1.73031   
     axis -90 7.62852e-016 20   XYZ
    dof rx rz
    limits (-45.0 90.0)
           (-70.0 20.0)
  end
  begin
     id 5 
     name ltoes
     direction 1.53548e-011 -4.21841e-011 1   
     length 0.828161   
     axis -90 7.62852e-016 20   XYZ
    dof rx
    limits (-90.0 20.0)
  end
  begin
     id 6 
     name rhipjoint
     direction -0.662732 -0.670855 0.332775   
     length 2.3618  
     axis 0 0 0  XYZ 
  end
  begin
     id 7 
     name rfemur
     direction -0.34202 -0.939693 0   
     length 6.3025   
     axis 0 0 -20   XYZ
    dof rx ry rz
    limits (-160.0 20.0)
           (-70.0 70.0)
           (-70.0 60.0)
  end
  begin
     id 8 
     name rtibia
     direction -0.34202 -0.939693 0   
     length 6.8732   
     axis 0 0 -20   XYZ
    dof rx
    limits (-10.0 170.0)
 end
 begin
     id 9 
     name rfoot
     direction -0.173856 -0.477665 0.861168   
     length 1.54784  
     axis -90 -7.62852e-016 -20   XYZ
    dof rx rz
    limits (-45.0 90.0)
           (-20.0 70.0)
  end
  begin
     id 10 
     name rtoes
     direction -1.53562e-011 -4.21802e-011 1   
     length 0.759618   
     axis -90 -7.62852e-016 -20   XYZ
    dof rx
    limits (-90.0 20.0)
  end
  begin
     id 11 
     name lowerback
     direction -0.0278357 0.999497 -0.0151789   
     length 1.97203   
     axis 0 0 0   XYZ
    dof rx ry rz
    limits (-20.0 45.0)
           (-30.0 30.0)
           (-30.0 30.0)
  end
  begin
     id 12 
     name upperback
     direction -0.00360622 0.997542 0.0699804   
     length 1.94709   
     axis 0 0 0   XYZ
    dof rx ry rz
    limits (-20.0 45.0)
           (-30.0 30.0)
           (-30.0 30.0)
  end
  begin
     id 13 
     name thorax
     direction 0.00907706 0.997048 0.0762461   
     length 1.95722   
     axis 0 0 0   XYZ
    dof rx ry rz
    limits (-20.0 45.0)
           (-30.0 30.0)
           (-30.0 30.0)
  end
  begin
     id 14 
     name lowerneck
     direction -0.0481835 0.99872 -0.0153927   
     length 1.63078   
     axis 0 0 0   XYZ
    dof rx ry rz
    limits (-20.0 45.0)
           (-30.0 30.0)
           (-30.0 30.0)
  end
  begin
     id 15 
     name upperneck
     direction 0.0859716 0.979226 -0.183644   
     length 1.62591   
     axis 0 0 0   XYZ
    dof rx ry rz
    limits (-20.0 45.0)
           (-30.0 30.0)
           (-30.0 30.0)
  end
  begin
     id 16
     name head
     direction 0.0324821 0.997629 -0.0606773  
     length 1.64811  
     axis 0 0 0   XYZ
    dof rx ry rz
    limits (-20.0 45.0)
           (-30.0 30.0)
           (-30.0 30.0)
  end
  begin
     id 17 
     name lclavicle
     direction 0.939609 0.311019 0.142835  
     length 3.70647  
     axis 0 0 0   XYZ
    dof ry rz
    limits (-20.0 10.0)
           (0.0 20.0)
  end
  begin
     id 18 
     name lhumerus
     direction 1 -4.48963e-011 -1.59838e-027   
     length 4.59207   
     axis 180 -30 -90   XYZ
    dof rx ry rz
    limits (-60.0 90.0)
           (-90.0 90.0)
           (-90.0 90.0)
  end
  begin
     id 19
     name lradius
     direction 1 -4.48957e-011 -1.3483e-026   
     length 2.98109   
     axis 180 -30 -90   XYZ
    dof rx
    limits (-10.0 170.0)
  end
  begin
     id 20
     name lwrist
     direction 1 -4.48954e-011 -3.11579e-026   
     length 1.49055   
     axis 2.00652e-014 90 90   XYZ
    dof ry
    limits (-180.0 0.0)
 end
  begin
     id 21 
     name lhand
     direction 1 -4.4911e-011 -6.23158e-026   
     length 0.480203   
     axis 3.97628e-014 90 90   XYZ
    dof rx rz
    limits (-90.0 90.0)
           (-45.0 45.0)
  end
  begin
     id 22 
     name lfingers
     direction 1 -4.48893e-011 -1.24632e-025   
     length 0.387152   
     axis 7.95256e-014 90 90   XYZ
    dof rx
    limits (0.0 90.0)
  end
  begin
     id 23
     name lthumb
     direction 0.707107 -6.35013e-011 0.707107   
     length 0.555875   
     axis -90 45 2.85299e-015   XYZ
    dof rx rz
    limits (-45.0 45.0)
           (-45.0 45.0)
  end
  begin
     id 24 
     name rclavicle
     direction -0.950396 0.30392 0.0661859   
     length 3.70894  
     axis 0 0 0   XYZ 
    dof ry rz
    limits (-10.0 20.0)
           (-20.0 0.0)
  end
  begin
     id 25 
     name rhumerus
     direction -1 -4.48957e-011 -2.96677e-027  
     length 4.76508   
     axis 180 30 90   XYZ
    dof rx ry rz
    limits (-90.0 60.0)
           (-90.0 90.0)
           (-90.0 90.0)
  end
  begin
     id 26 
     name rradius
     direction -1 -4.48974e-011 -1.44501e-026   
     length 2.78902   
     axis 180 30 90   XYZ
    dof rx
    limits (-10.0 170.0)
  end
  begin
     id 27 
     name rwrist
     direction -1 -4.48978e-011 -3.11579e-026   
     length 1.39451   
     axis 2.00652e-014 -90 -90   XYZ
    dof ry
    limits (-180.0 0.0)
  end
  begin
     id 28
     name rhand
     direction -1 -4.48956e-011 -6.23158e-026   
     length 0.721303   
     axis 3.97628e-014 -90 -90   XYZ
    dof rx rz
    limits (-90.0 90.0)
           (-45.0 45.0)
  end
  begin
     id 29
     name rfingers
     direction -1 -4.4899e-011 -1.24632e-025   
     length 0.581533   
     axis 7.95256e-014 -90 -90   XYZ
    dof rx
    limits (0.0 90.0)
  end
  begin
     id 30
     name rthumb
     direction -0.707107 -6.34911e-011 0.707107   
     length 0.834968   
     axis -90 -45 -2.85299e-015   XYZ
    dof rx rz
    limits (-45.0 45.0)
           (-45.0 45.0)
  end
:hierarchy
  begin
    root lhipjoint rhipjoint lowerback
    lhipjoint lfemur
    lfemur ltibia
    ltibia lfoot
    lfoot ltoes
    rhipjoint rfemur
    rfemur rtibia
    rtibia rfoot
    rfoot rtoes
    lowerback upperback
    upperback thorax
    thorax lowerneck lclavicle rclavicle
    lowerneck upperneck
    upperneck head
    lclavicle lhumerus
    lhumerus lradius
    lradius lwrist
    lwrist lhand lthumb
    lhand lfingers
    rclavicle rhumerus
    rhumerus rradius
    rradius rwrist
    rwrist rhand rthumb
    rhand rfingers
  end

#!OML:ASF I:\salsa\salsa 7_09\Patient 1\Session 1\dancerfemale.ASF
:FULLY-SPECIFIED
:DEGREES
1051
root 15.5667 16.0659 -2.53461 -21.6151 977.804 29.039
lowerback 5.99953 7.71151 8.70107
upperback -6.56854 11.1001 -1.67199
thorax -8.40345 4.77864 -7.8479
lowerneck 4.60304 -11.0009 -15.3017
upperneck -0.865173 -15.5396 14.6511
head 1.36474 -7.93269 6.57416
rclavicle 9.73548e-014 2.46493e-014
rhumerus -6.72201 21.2786 -87.5828
rradius 67.0061
rwrist -2.61338
rhand -3.5359 -317.542
rfingers 7.12502
rthumb 22.1996 13.7123
lclavicle 9.73548e-014 2.46493e-014
lhumerus -64.0844 22.3769 54.9581
lradius 66.6223
lwrist -19.3833
lhand -29.0047 32.09
lfingers 7.12502
lthumb -2.35629 -297.943
rfemur -12.5135 -12.1273 29.9494
rtibia 22.733
rfoot -22.765 -21.0803
rtoes -11.6347
lfemur -36.6024 -5.84969 -9.86148
ltibia 59.2807
lfoot -15.6605 1.34572
ltoes -30.1618
1052
root 15.8095 16.043 -2.58587 -33.752 979.855 41.2253
lowerback 6.01134 7.74159 8.9159
upperback -6.862 11.2011 -1.34249
thorax -8.74945 4.78442 -7.65502
lowerneck 5.11104 -11.552 -14.8843
upperneck -1.14733 -16.3232 14.9325
head 1.30864 -8.34884 6.58421
rclavicle -4.7932e-014 -5.96354e-015
rhumerus -5.88918 18.7346 -86.9077
rradius 67.8434
rwrist -3.04987
rhand -4.16873 -318.211
rfingers 7.12502
rthumb 21.5919 12.9732
lclavicle -4.7932e-014 -5.96354e-015
lhumerus -65.5439 23.0872 52.3345
lradius 67.3454
lwrist -18.9394
lhand -27.8441 33.0703
lfingers 7.12502
lthumb -1.2353 -296.953
rfemur -13.3849 -13.2305 31.5228
rtibia 22.6912
rfoot -23.0384 -21.9406
rtoes -10.2424
lfemur -35.7085 -4.75586 -9.7206
ltibia 61.7668
lfoot -15.125 0.832846
ltoes -30.3041
1053
root 16.0424 16.012 -2.62888 -48.5221 981.652 55.8273
lowerback 6.08139 7.68004 8.59749
upperback -7.01793 11.1215 -1.0704
thorax -9.08916 4.74418 -7.22843
lowerneck 5.68728 -12.171 -14.1944
upperneck -1.73684 -17.1374 14.7546
head 1.08951 -8.77636 6.43744
rclavicle 1.15121e-013 1.74931e-014
rhumerus -4.97524 16.2765 -86.2004
rradius 68.7338
rwrist -2.98681
rhand -4.385 -318.819
rfingers 7.12502
rthumb 21.3842 12.3405
lclavicle 1.15121e-013 1.74931e-014
lhumerus -66.935 23.7392 49.6383
lradius 68.1429
lwrist -18.7169
lhand -25.8514 33.9582
lfingers 7.12502
lthumb 0.689269 -296.063
rfemur -14.1138 -14.92 32.407
rtibia 22.76
rfoot -23.2339 -22.0925
rtoes -8.57385
lfemur -34.2429 -4.016 -9.98093
ltibia 63.7015
lfoot -14.6432 0.590884
ltoes -30.2262
1054
root 16.2592 15.9925 -2.66921 -67.4716 982.981 74.4591
lowerback 6.15341 7.56412 7.89265
upperback -7.12897 10.9226 -0.839238
thorax -9.45525 4.67484 -6.62954
lowerneck 6.26698 -12.4883 -14.5766
upperneck -2.04608 -17.6606 15.5207
head 1.08894 -9.07308 6.73051
rclavicle -5.10131e-014 -3.65764e-014
rhumerus -4.49724 13.7503 -85.5834
rradius 69.886
rwrist -2.63281
rhand -3.95271 -318.838
rfingers 7.12502
rthumb 21.7994 12.3698
lclavicle -5.10131e-014 -3.65764e-014
lhumerus -68.2386 24.1416 46.8428
lradius 68.7825
lwrist -18.6602
lhand -23.6745 34.2447
lfingers 7.12502
lthumb 2.79168 -295.794
rfemur -14.5967 -15.4758 32.7379
rtibia 22.9374
rfoot -24.0319 -23.1168
rtoes -5.08045
lfemur -32.1487 -3.5889 -10.4193
ltibia 64.8795
lfoot -14.1264 0.97351
ltoes -30.018
1055
root 16.4558 15.9906 -2.70643 -88.4539 983.394 95.2981
lowerback 5.97685 7.69689 7.07301
upperback -7.40298 11.0125 -0.781304
thorax -9.79688 4.75028 -6.1501
lowerneck 7.18522 -13.1636 -13.5385
upperneck -2.6505 -18.5374 14.9249
head 0.741224 -9.53929 6.45073
rclavicle -3.47873e-014 -1.03368e-014
rhumerus -4.3733 10.5242 -85.2761
rradius 70.9922
rwrist -2.27608
rhand -3.5486 -318.287
rfingers 7.12502
rthumb 22.1874 12.9666
lclavicle -3.47873e-014 -1.03368e-014
lhumerus -68.9139 23.6909 44.3373
lradius 69.1787
lwrist -18.9065
lhand -21.4711 34.6036
lfingers 7.12502
lthumb 4.91952 -295.474
rfemur -15.1878 -14.2869 32.8952
rtibia 23.2007
rfoot -25.7224 -25.3807
rtoes -0.948028
lfemur -29.7389 -3.14107 -10.6469
ltibia 65.2533
lfoot -13.6412 1.72888
ltoes -30.4368
1056
root 16.6468 15.988 -2.73464 -106.871 982.884 113.874
lowerback 5.13088 7.86785 6.46541
upperback -7.5044 11.1115 -0.729752
thorax -9.51217 4.86628 -5.65627
lowerneck 7.8192 -13.6739 -12.9577
upperneck -3.31673 -19.1856 14.8491
head 0.474391 -9.89025 6.39063
rclavicle 7.35503e-015 2.82274e-014
rhumerus -3.56499 7.57057 -85.0964
rradius 71.9513
rwrist -2.66856
rhand -3.10541 -317.835
rfingers 7.12502
rthumb 22.6128 13.4699
lclavicle 7.35503e-015 2.82274e-014
lhumerus -68.9729 23.295 42.2527
lradius 69.4735
lwrist -19.4303
lhand -19.4887 35.2555
lfingers 7.12502
lthumb 6.83344 -294.875
rfemur -16.1038 -12.6467 33.1058
rtibia 23.3733
rfoot -27.366 -27.834
rtoes 2.71028
lfemur -27.3637 -2.77668 -10.5059
ltibia 64.9661
lfoot -13.2003 2.34201
ltoes -30.8448
1057
root 16.8358 15.9698 -2.74224 -120.31 981.657 127.427
lowerback 4.43256 7.90701 6.20091
upperback -7.63411 11.0969 -0.547977
thorax -9.33046 4.89569 -5.22499
lowerneck 8.23131 -13.9802 -12.851
upperneck -3.60204 -19.6079 14.8831
head 0.37716 -10.1175 6.40637
rclavicle -9.06955e-014 -4.77083e-015
rhumerus -2.8626 5.38299 -85.089
rradius 73.4173
rwrist -4.22967
rhand -1.93038 -318.472
rfingers 7.12502
rthumb 23.7402 12.9741
lclavicle -9.06955e-014 -4.77083e-015
lhumerus -69.0982 22.8943 40.3545
lradius 69.8218
lwrist -19.5947
lhand -17.4417 35.7512
lfingers 7.12502
lthumb 8.80913 -294.453
rfemur -17.1348 -13.5408 33.515
rtibia 23.428
rfoot -27.6337 -28.2876
rtoes 4.18102
lfemur -24.7934 -2.98571 -10.0747
ltibia 64.1515
lfoot -13.0094 2.60478
ltoes -30.1712
1058
root 17.028 15.9519 -2.73257 -127.876 979.975 135.041
lowerback 3.92742 7.85441 6.47882
upperback -7.78192 11.0305 -0.278969
thorax -9.21229 4.85635 -5.01533
lowerneck 8.44833 -14.2492 -12.6307
upperneck -3.71518 -19.9589 14.6078
head 0.306661 -10.2929 6.30188
rclavicle -7.45443e-015 -7.15625e-015
rhumerus -1.45073 3.99125 -85.3265
rradius 73.7953
rwrist -6.7448
rhand -0.681828 -319.732
rfingers 7.12502
rthumb 24.9371 11.8752
lclavicle -7.45443e-015 -7.15625e-015
lhumerus -69.3074 22.6236 38.4164
lradius 70.3217
lwrist -19.4953
lhand -15.4685 36.5214
lfingers 7.12502
lthumb 10.7129 -293.772
rfemur -18.2344 -15.4246 34.2839
rtibia 23.5075
rfoot -27.17 -27.9245
rtoes 4.37512
lfemur -22.1227 -3.49453 -9.2383
ltibia 62.8086
lfoot -12.8502 2.25521
ltoes -29.857
1059
root 17.2326 15.9396 -2.71828 -130.942 978.255 138.313
lowerback 3.4079 7.69499 7.01622
upperback -7.94721 10.8479 0.187778
thorax -9.11548 4.74388 -4.72834
lowerneck 8.55388 -14.337 -12.7067
upperneck -3.81118 -20.0816 14.2604
head 0.248227 -10.343 6.21972
rclavicle 1.46355e-014 -1.55052e-014
rhumerus 0.233023 3.58166 -85.7364
rradius 73.9437
rwrist -9.10009
rhand 0.410997 -320.901
rfingers 7.12502
rthumb 25.984 10.8559
lclavicle 1.46355e-014 -1.55052e-014
lhumerus -70.0434 22.8804 36.0865
lradius 71.0627
lwrist -19.899
lhand -14.7149 38.1057
lfingers 7.12502
lthumb 11.4397 -292.226
rfemur -19.5986 -16.7308 35.3564
rtibia 23.6528
rfoot -26.5828 -27.7858
rtoes 5.18925
lfemur -19.6674 -3.88591 -8.05289
ltibia 60.8954
lfoot -12.1969 1.27389
ltoes -30.6069
1060
root 17.4464 15.9296 -2.70203 -132.929 977.059 140.587
lowerback 3.0549 7.73115 7.11955
upperback -8.24941 10.901 0.502441
thorax -9.28677 4.75343 -4.43115
lowerneck 8.91553 -14.4535 -12.7515
upperneck -3.89034 -20.2719 13.9871
head 0.168003 -10.4384 6.17277
rclavicle -4.99943e-014 1.45113e-014
rhumerus 1.83173 3.00566 -86.1623
rradius 73.6204
rwrist -10.3713
rhand 1.19635 -321.436
rfingers 7.12502
rthumb 26.7358 10.4331
lclavicle -4.99943e-014 1.45113e-014
lhumerus -70.4787 22.7703 34.3098
lradius 72.0215
lwrist -19.8331
lhand -13.6493 38.4385
lfingers 7.12502
lthumb 12.4673 -291.953
rfemur -21.0731 -17.4995 36.0564
rtibia 23.827
rfoot -25.9526 -27.7884
rtoes 6.80571
lfemur -17.2182 -4.16526 -7.29516
ltibia 58.2877
lfoot -10.635 0.175631
ltoes -31.3148
1061
root 17.6647 15.9239 -2.68361 -135.338 976.549 143.187
lowerback 2.964 7.9257 6.59353
upperback -8.55488 11.1333 0.594907
thorax -9.6624 4.88128 -4.09519
lowerneck 9.27884 -14.6117 -12.658
upperneck -3.85602 -20.5165 13.803
head 0.123781 -10.5665 6.1257
rclavicle 4.96962e-015 1.66979e-014
rhumerus 3.4038 2.02101 -86.7316
rradius 72.908
rwrist -10.38
rhand 1.56526 -321.518
rfingers 7.12502
rthumb 27.0887 10.405
lclavicle 4.96962e-015 1.66979e-014
lhumerus -70.4847 22.255 33.3154
lradius 73.2201
lwrist -18.6762
lhand -13.6557 38.0048
lfingers 7.12502
lthumb 12.4611 -292.387
rfemur -22.4929 -17.9371 36.0612
rtibia 24.2129
rfoot -25.4307 -27.8334
rtoes 8.17847
lfemur -14.4572 -4.42139 -7.35197
ltibia 54.9019
lfoot -8.14061 -0.474755
ltoes -32.1608
1062
root 17.8882 15.919 -2.66075 -138.205 976.632 145.928
lowerback 3.31172 8.08521 5.68339
upperback -8.64035 11.321 0.657517
thorax -10.1251 5.02092 -3.6459
lowerneck 9.07217 -14.7097 -12.6244
upperneck -3.59413 -20.6441 13.5875
head 0.22267 -10.6165 6.02139
rclavicle 5.03174e-014 4.73108e-014
rhumerus 5.17328 1.36388 -87.4246
rradius 71.9539
rwrist -9.68975
rhand 1.49107 -321.426
rfingers 7.12502
rthumb 27.0178 10.4866
lclavicle 5.03174e-014 4.73108e-014
lhumerus -70.5941 22.0676 32.3574
lradius 74.5357
lwrist -17.7341
lhand -14.57 38.2449
lfingers 7.12502
lthumb 11.5794 -292.095
rfemur -23.595 -18.0524 35.4255
rtibia 24.8113
rfoot -25.0408 -28.0082
rtoes 9.08998
lfemur -11.108 -4.69056 -8.15199
ltibia 50.7567
lfoot -9.86864 -0.326333
ltoes -36.8224
1063
root 18.1226 15.9098 -2.63269 -142.311 977.262 149.551
lowerback 3.92773 8.55317 4.35317
upperback -8.5102 11.8777 0.474696
thorax -10.5159 5.37754 -3.30238
lowerneck 9.304 -15.059 -11.9847
upperneck -3.94854 -21.0399 13.3147
head 0.0372045 -10.8187 5.88562
rclavicle 3.57067e-014 1.66979e-014
rhumerus 6.9498 0.0994052 -87.916
rradius 70.7876
rwrist -9.16717
rhand 1.43106 -321.738
rfingers 7.12502
rthumb 26.9603 10.1657
lclavicle 3.57067e-014 1.66979e-014
lhumerus -69.8288 21.7327 32.1487
lradius 75.8337
lwrist -17.3906
lhand -16.6602 38.8963
lfingers 7.12502
lthumb 9.56319 -291.341
rfemur -24.2185 -17.7338 34.0391
rtibia 25.3763
rfoot -24.675 -28.4119
rtoes 10.1941
lfemur -7.20616 -5.09418 -9.76991
ltibia 46.0842
lfoot -13.7481 0.591632
ltoes -38.2386
1064
root 18.3687 15.9095 -2.59848 -146.928 977.941 153.55
lowerback 4.8582 9.3952 3.13245
upperback -8.45838 12.9223 -0.0441865
thorax -11.082 5.93462 -3.50282
lowerneck 10.1888 -15.7108 -10.6985
upperneck -4.89517 -21.7761 13.4344
head -0.409685 -11.2368 5.86439
rclavicle 9.80257e-014 4.94974e-014
rhumerus 8.38341 -2.35002 -88.2895
rradius 69.5436
rwrist -9.05746
rhand 1.38525 -322.119
rfingers 7.12502
rthumb 26.9165 9.7778
lclavicle 9.80257e-014 4.94974e-014
lhumerus -67.8537 20.6052 33.0246
lradius 77.164
lwrist -17.04
lhand -15.1955 38.3807
lfingers 7.12502
lthumb 10.9762 -291.926
rfemur -24.6444 -17.369 32.5165
rtibia 25.807
rfoot -24.1984 -28.8579
rtoes 11.2502
lfemur -3.86727 -5.85808 -11.6511
ltibia 41.2358
lfoot -17.8412 2.29002
ltoes -39.1131
1065
root 18.628 15.9261 -2.55564 -150.791 978.136 156.881
lowerback 5.59532 9.19886 2.37213
upperback -7.92426 12.6519 0.442563
thorax -11.2153 5.88698 -2.67155
lowerneck 9.71712 -15.4064 -11.371
upperneck -5.11725 -21.38 13.3458
head -0.389737 -11.0073 5.9057
rclavicle -2.67365e-014 -1.54058e-015
rhumerus 10.6173 -1.69396 -89.118
rradius 67.8242
rwrist -9.16276
rhand 1.15946 -322.168
rfingers 7.12502
rthumb 26.7005 9.69587
lclavicle -2.67365e-014 -1.54058e-015
lhumerus -68.7408 21.5723 32.8864
lradius 78.7758
lwrist -16.7815
lhand -15.4169 38.4308
lfingers 7.12502
lthumb 10.7626 -291.865
rfemur -25.1663 -17.3969 31.4629
rtibia 26.0833
rfoot -23.5777 -29.284
rtoes 12.3473
lfemur -1.50065 -6.67318 -13.0588
ltibia 36.7068
lfoot -20.7698 3.60551
ltoes -38.8269
